<mxfile host="Electron" agent="Mozilla/5.0 (Windows NT 10.0; Win64; x64) AppleWebKit/537.36 (KHTML, like Gecko) draw.io/24.7.17 Chrome/128.0.6613.36 Electron/32.0.1 Safari/537.36" version="24.7.17">
  <diagram name="Page-1" id="qIfon8f24tEuRwMhRDzd">
    <mxGraphModel dx="1102" dy="570" grid="1" gridSize="10" guides="1" tooltips="1" connect="1" arrows="1" fold="1" page="1" pageScale="1" pageWidth="850" pageHeight="1100" math="0" shadow="0">
      <root>
        <mxCell id="0" />
        <mxCell id="1" parent="0" />
        <mxCell id="6B4iAeokKCNljxcLNyCy-1" value="Plan" style="rounded=1;arcSize=10;whiteSpace=wrap;html=1;align=center;" vertex="1" parent="1">
          <mxGeometry x="375" y="390" width="100" height="40" as="geometry" />
        </mxCell>
        <mxCell id="6B4iAeokKCNljxcLNyCy-4" value="User" style="ellipse;shape=doubleEllipse;margin=3;whiteSpace=wrap;html=1;align=center;" vertex="1" parent="1">
          <mxGeometry x="375" y="310" width="100" height="40" as="geometry" />
        </mxCell>
        <mxCell id="6B4iAeokKCNljxcLNyCy-5" value="" style="endArrow=none;html=1;rounded=0;" edge="1" parent="1" source="6B4iAeokKCNljxcLNyCy-4" target="6B4iAeokKCNljxcLNyCy-1">
          <mxGeometry relative="1" as="geometry">
            <mxPoint x="530" y="380" as="sourcePoint" />
            <mxPoint x="690" y="380" as="targetPoint" />
          </mxGeometry>
        </mxCell>
        <mxCell id="6B4iAeokKCNljxcLNyCy-6" value="Course" style="ellipse;shape=doubleEllipse;margin=3;whiteSpace=wrap;html=1;align=center;" vertex="1" parent="1">
          <mxGeometry x="480" y="310" width="100" height="40" as="geometry" />
        </mxCell>
        <mxCell id="6B4iAeokKCNljxcLNyCy-7" value="" style="endArrow=none;html=1;rounded=0;" edge="1" parent="1" source="6B4iAeokKCNljxcLNyCy-1" target="6B4iAeokKCNljxcLNyCy-6">
          <mxGeometry relative="1" as="geometry">
            <mxPoint x="560" y="410" as="sourcePoint" />
            <mxPoint x="720" y="410" as="targetPoint" />
          </mxGeometry>
        </mxCell>
      </root>
    </mxGraphModel>
  </diagram>
</mxfile>
